<svg width="469" height="130" viewBox="0 0 469 130" fill="none" xmlns="http://www.w3.org/2000/svg">
<g clip-path="url(#clip0_4276_186)">
<path d="M207.35 69.2L193.35 49.45H182.75V69.2H170.09V12.75H195.25C209.25 12.75 218.16 19.93 218.16 31.14C218.16 38.64 213.88 44.37 206.54 47.27L222.54 69.2H207.35ZM182.75 38.88H193.48C201.06 38.88 205.58 35.98 205.58 31.14C205.58 26.3 201.3 23.32 194.12 23.32H182.75V38.88Z" fill="#225972"/>
<path d="M225 49.69C225 37.43 233.31 28.8 245.08 28.8C247.388 28.7473 249.683 29.1713 251.82 30.0453C253.957 30.9194 255.89 32.2248 257.5 33.88H257.66V30.09H269.6V69.2H257.67V65.41H257.51C255.896 67.059 253.961 68.3603 251.825 69.2339C249.689 70.1075 247.397 70.535 245.09 70.49C233.32 70.49 225 61.86 225 49.69ZM257.42 49.69C257.42 42.91 253.31 38.24 247.26 38.24C241.21 38.24 236.85 42.91 236.85 49.69C236.85 56.47 241.13 61.06 247.26 61.06C253.39 61.06 257.43 56.38 257.43 49.69H257.42Z" fill="#225972"/>
<path d="M310 33.88H310.16V7H322.33V69.2H310.41V65.41H310.25C308.643 67.0681 306.709 68.3755 304.572 69.2498C302.434 70.1241 300.139 70.5463 297.83 70.49C286.05 70.49 277.75 61.86 277.75 49.69C277.75 37.52 286 28.8 297.67 28.8C299.963 28.7632 302.239 29.1948 304.359 30.0683C306.479 30.9418 308.399 32.2388 310 33.88ZM310.16 49.69C310.16 42.91 306.04 38.24 300 38.24C293.96 38.24 289.6 42.91 289.6 49.69C289.6 56.47 293.88 61.06 300 61.06C306.12 61.06 310.17 56.38 310.17 49.69H310.16Z" fill="#225972"/>
<path d="M332.262 7H344.682V18H332.262V7ZM332.422 30.14H344.522V69.2H332.422V30.14Z" fill="#225972"/>
<path d="M352.738 49.69C352.738 37.11 361.608 28.8 374.918 28.8C386.128 28.8 394.348 35.17 395.478 45.01H383.998C383.198 41.54 380.208 38.5601 374.888 38.5601C368.518 38.5601 364.328 42.99 364.328 49.69C364.328 56.39 368.518 60.7401 374.888 60.7401C380.208 60.7401 383.198 57.74 383.998 54.28H395.448C394.318 64.2 386.098 70.49 374.888 70.49C361.608 70.49 352.738 62.19 352.738 49.69Z" fill="#225972"/>
<path d="M401.77 49.69C401.77 37.43 410.08 28.8 421.85 28.8C424.158 28.7473 426.452 29.1713 428.589 30.0453C430.726 30.9194 432.66 32.2248 434.27 33.88H434.43V30.09H446.37V69.2H434.43V65.41H434.27C432.655 67.059 430.721 68.3603 428.585 69.2339C426.449 70.1075 424.157 70.535 421.85 70.49C410.08 70.49 401.77 61.86 401.77 49.69ZM434.19 49.69C434.19 42.91 430.08 38.24 424.03 38.24C417.98 38.24 413.63 42.91 413.63 49.69C413.63 56.47 417.9 61.06 424 61.06C430.1 61.06 434.19 56.38 434.19 49.69Z" fill="#225972"/>
<path d="M456.441 7H468.541V69.2H456.441V7Z" fill="#225972"/>
<path d="M176 82.39H198.23L197.29 88.57H182.82L181.87 94.75H194.24L193.3 100.85H180.93L179.42 111.05H171.68L176 82.39Z" fill="#E15050"/>
<path d="M198.129 98.8499C198.129 88.8499 206.029 81.6899 216.379 81.6899C224.859 81.6899 230.179 86.8899 230.179 94.5899C230.179 104.59 222.239 111.74 211.839 111.74C203.409 111.74 198.129 106.54 198.129 98.8499ZM222.199 95.4499C222.199 91.2699 219.579 88.4499 215.399 88.4499C214.146 88.4304 212.903 88.6652 211.744 89.1401C210.584 89.615 209.534 90.3202 208.655 91.213C207.776 92.1058 207.088 93.1676 206.631 94.3342C206.175 95.5008 205.96 96.7478 205.999 97.9999C205.999 102.17 208.659 105 212.829 105C214.08 105.02 215.322 104.785 216.48 104.31C217.638 103.834 218.686 103.129 219.563 102.235C220.439 101.342 221.125 100.28 221.578 99.1135C222.031 97.947 222.242 96.7006 222.199 95.4499Z" fill="#E15050"/>
<path d="M233 98.8499C233 88.8499 240.9 81.6899 251.26 81.6899C259.74 81.6899 265.06 86.8899 265.06 94.5899C265.06 104.59 257.12 111.74 246.72 111.74C238.28 111.74 233 106.54 233 98.8499ZM257.07 95.4499C257.07 91.2699 254.45 88.4499 250.28 88.4499C249.029 88.4345 247.789 88.6723 246.633 89.1489C245.476 89.6256 244.429 90.3313 243.552 91.2235C242.676 92.1157 241.989 93.176 241.533 94.3406C241.078 95.5052 240.862 96.7499 240.9 97.9999C240.9 102.17 243.57 105 247.74 105C248.988 105.014 250.226 104.775 251.379 104.298C252.532 103.82 253.576 103.113 254.448 102.221C255.32 101.328 256.002 100.268 256.453 99.104C256.903 97.9402 257.113 96.6972 257.07 95.4499Z" fill="#E15050"/>
<path d="M294.698 88.82H285.488L282.128 111.05H274.388L277.748 88.82H268.578L269.518 82.39H295.678L294.698 88.82Z" fill="#E15050"/>
<path d="M298.91 82.39H313.49C319.22 82.39 322.61 85.01 322.61 89.06C322.598 90.6639 322.082 92.2235 321.134 93.5175C320.187 94.8116 318.856 95.7746 317.33 96.27V96.43C318.678 96.6767 319.892 97.4008 320.75 98.4696C321.608 99.5385 322.052 100.881 322 102.25C322 107.53 317.17 111.05 310.05 111.05H294.57L298.91 82.39ZM309.72 105.19C312.5 105.19 314.39 103.88 314.39 101.84C314.39 100.24 313.08 99.26 310.91 99.26H304.07L303.21 105.19H309.72ZM310.13 94.1C312.95 94.1 314.84 92.46 314.84 90.58C314.84 89.23 313.77 88.16 311.23 88.16H305.75L304.89 94.1H310.13Z" fill="#E15050"/>
<path d="M339.27 82.39H346.73L354.83 111.05H346.6L345.33 106.05H333.5L330.68 111.05H322.41L339.27 82.39ZM343.86 99.99L341.73 91.19H341.57L336.74 99.99H343.86Z" fill="#E15050"/>
<path d="M380.7 104.7L379.7 111.05H357.57L361.91 82.39H369.65L366.25 104.7H380.7Z" fill="#E15050"/>
<path d="M406.001 104.7L405.001 111.05H382.871L387.211 82.39H395.001L391.601 104.7H406.001Z" fill="#E15050"/>
<path fill-rule="evenodd" clip-rule="evenodd" d="M96.3398 0L141.31 34.82L96.3699 87.94L96.3398 0Z" fill="#225972"/>
<path d="M60.6995 0C59.5683 0.000543358 58.4508 0.247767 57.4249 0.724442C56.399 1.20112 55.4894 1.89577 54.7595 2.76C51.0595 7.12 44.2695 15.15 44.2695 15.15H81.1895V0H60.6995Z" fill="url(#paint0_radial_4276_186)"/>
<path d="M10.48 42.7C11.2133 43.5622 12.1252 44.2546 13.1525 44.7295C14.1799 45.2043 15.2982 45.4502 16.43 45.45H81.19V30.29H0L10.48 42.7Z" fill="url(#paint1_radial_4276_186)"/>
<path d="M81.1614 129.73L81.1914 60.65L22.6914 60.6L81.1614 129.73Z" fill="url(#paint2_radial_4276_186)"/>
</g>
<defs>
<radialGradient id="paint0_radial_4276_186" cx="0" cy="0" r="1" gradientUnits="userSpaceOnUse" gradientTransform="translate(78.7847 -14.161) rotate(90) scale(133.77 143.078)">
<stop stop-color="#225972"/>
<stop offset="0.79" stop-color="#E15050"/>
<stop offset="1" stop-color="#FD8539"/>
</radialGradient>
<radialGradient id="paint1_radial_4276_186" cx="0" cy="0" r="1" gradientUnits="userSpaceOnUse" gradientTransform="translate(78.7852 -14.161) rotate(90) scale(133.77 143.078)">
<stop stop-color="#225972"/>
<stop offset="0.79" stop-color="#E15050"/>
<stop offset="1" stop-color="#FD8539"/>
</radialGradient>
<radialGradient id="paint2_radial_4276_186" cx="0" cy="0" r="1" gradientUnits="userSpaceOnUse" gradientTransform="translate(78.7866 -14.161) rotate(90) scale(133.77 143.078)">
<stop stop-color="#225972"/>
<stop offset="0.79" stop-color="#E15050"/>
<stop offset="1" stop-color="#FD8539"/>
</radialGradient>
<clipPath id="clip0_4276_186">
<rect width="468.54" height="129.73" fill="white"/>
</clipPath>
</defs>
</svg>
