<svg width="234" height="65" viewBox="0 0 234 65" fill="none" xmlns="http://www.w3.org/2000/svg">
<g clip-path="url(#clip0_4276_161)">
<path d="M103.554 34.672L96.5619 24.7765H91.268V34.672H84.9453V6.38831H97.5108C104.503 6.38831 108.953 9.98578 108.953 15.6024C108.953 19.3602 106.815 22.2312 103.149 23.6842L111.14 34.672H103.554ZM91.268 19.4805H96.6268C100.412 19.4805 102.67 18.0275 102.67 15.6024C102.67 13.1774 100.532 11.6843 96.9465 11.6843H91.268V19.4805Z" fill="#225972"/>
<path d="M112.367 24.8968C112.367 18.754 116.517 14.43 122.396 14.43C123.548 14.4036 124.694 14.616 125.762 15.054C126.829 15.4919 127.795 16.146 128.598 16.9753H128.678V15.0764H134.641V34.6721H128.683V32.7731H128.603C127.797 33.5993 126.831 34.2513 125.764 34.6891C124.698 35.1268 123.553 35.341 122.401 35.3184C116.522 35.3184 112.367 30.9945 112.367 24.8968ZM128.559 24.8968C128.559 21.4997 126.506 19.1599 123.484 19.1599C120.463 19.1599 118.285 21.4997 118.285 24.8968C118.285 28.2938 120.423 30.5936 123.484 30.5936C126.546 30.5936 128.563 28.2487 128.563 24.8968H128.559Z" fill="#225972"/>
<path d="M154.821 16.9753H154.901V3.50732H160.979V34.6721H155.026V32.7731H154.946C154.143 33.6039 153.178 34.2589 152.11 34.697C151.043 35.135 149.896 35.3466 148.743 35.3184C142.86 35.3184 138.715 30.9944 138.715 24.8967C138.715 18.7991 142.835 14.43 148.663 14.43C149.808 14.4116 150.945 14.6278 152.004 15.0655C153.063 15.5031 154.021 16.153 154.821 16.9753ZM154.901 24.8967C154.901 21.4997 152.844 19.1598 149.827 19.1598C146.811 19.1598 144.633 21.4997 144.633 24.8967C144.633 28.2938 146.771 30.5936 149.827 30.5936C152.883 30.5936 154.906 28.2487 154.906 24.8967H154.901Z" fill="#225972"/>
<path d="M165.938 3.50732H172.14V9.01877H165.938V3.50732ZM166.017 15.1014H172.06V34.6721H166.017V15.1014Z" fill="#225972"/>
<path d="M176.164 24.8968C176.164 18.5937 180.594 14.4301 187.241 14.4301C192.84 14.4301 196.945 17.6217 197.509 22.5519H191.776C191.377 20.8133 189.883 19.3202 187.226 19.3202C184.045 19.3202 181.952 21.5398 181.952 24.8968C181.952 28.2538 184.045 30.4333 187.226 30.4333C189.883 30.4333 191.377 28.9302 191.776 27.1966H197.494C196.93 32.1669 192.825 35.3184 187.226 35.3184C180.594 35.3184 176.164 31.1598 176.164 24.8968Z" fill="#225972"/>
<path d="M200.652 24.8968C200.652 18.754 204.803 14.43 210.681 14.43C211.834 14.4036 212.979 14.616 214.047 15.054C215.114 15.4919 216.08 16.146 216.884 16.9753H216.964V15.0764H222.927V34.6721H216.964V32.7731H216.884C216.077 33.5993 215.111 34.2513 214.044 34.6891C212.978 35.1268 211.833 35.341 210.681 35.3184C204.803 35.3184 200.652 30.9945 200.652 24.8968ZM216.844 24.8968C216.844 21.4997 214.791 19.1599 211.77 19.1599C208.748 19.1599 206.576 21.4997 206.576 24.8968C206.576 28.2938 208.708 30.5936 211.755 30.5936C214.801 30.5936 216.844 28.2487 216.844 24.8968Z" fill="#225972"/>
<path d="M227.957 3.50732H234V34.6721H227.957V3.50732Z" fill="#225972"/>
<path d="M87.8958 41.2808H98.998L98.5285 44.3772H91.3019L90.8274 47.4736H97.0053L96.5358 50.53H90.358L89.6038 55.6406H85.7383L87.8958 41.2808Z" fill="#E15050"/>
<path d="M98.9492 49.5279C98.9492 44.5175 102.895 40.9301 108.064 40.9301C112.299 40.9301 114.956 43.5355 114.956 47.3935C114.956 52.4039 110.99 55.9863 105.796 55.9863C101.586 55.9863 98.9492 53.3809 98.9492 49.5279ZM110.97 47.8244C110.97 45.73 109.662 44.3171 107.574 44.3171C106.949 44.3073 106.328 44.4249 105.749 44.6629C105.17 44.9009 104.645 45.2542 104.206 45.7015C103.767 46.1488 103.423 46.6808 103.195 47.2653C102.967 47.8498 102.86 48.4747 102.88 49.102C102.88 51.1914 104.208 52.6093 106.291 52.6093C106.916 52.6192 107.536 52.5015 108.114 52.2634C108.692 52.0252 109.216 51.6717 109.654 51.2241C110.092 50.7766 110.434 50.2444 110.66 49.6599C110.887 49.0755 110.992 48.451 110.97 47.8244Z" fill="#E15050"/>
<path d="M116.363 49.5279C116.363 44.5175 120.309 40.9301 125.483 40.9301C129.718 40.9301 132.375 43.5355 132.375 47.3935C132.375 52.4039 128.409 55.9863 123.215 55.9863C119 55.9863 116.363 53.3809 116.363 49.5279ZM128.384 47.8244C128.384 45.73 127.076 44.3171 124.993 44.3171C124.369 44.3094 123.749 44.4285 123.172 44.6673C122.594 44.9061 122.071 45.2597 121.633 45.7067C121.196 46.1538 120.853 46.685 120.625 47.2685C120.397 47.852 120.29 48.4757 120.309 49.102C120.309 51.1914 121.642 52.6093 123.725 52.6093C124.348 52.6165 124.966 52.4967 125.542 52.2574C126.118 52.018 126.639 51.664 127.075 51.2168C127.51 50.7695 127.851 50.2383 128.076 49.6552C128.301 49.0721 128.406 48.4493 128.384 47.8244Z" fill="#E15050"/>
<path d="M147.178 44.5025H142.578L140.9 55.6406H137.034L138.713 44.5025H134.133L134.602 41.2808H147.667L147.178 44.5025Z" fill="#E15050"/>
<path d="M149.281 41.2808H156.562C159.424 41.2808 161.117 42.5935 161.117 44.6227C161.111 45.4263 160.853 46.2077 160.38 46.8561C159.907 47.5045 159.242 47.987 158.48 48.2352V48.3154C159.153 48.439 159.76 48.8018 160.188 49.3373C160.616 49.8728 160.838 50.5453 160.812 51.2314C160.812 53.8769 158.4 55.6406 154.844 55.6406H147.113L149.281 41.2808ZM154.68 52.7045C156.068 52.7045 157.012 52.0481 157.012 51.026C157.012 50.2243 156.358 49.7333 155.274 49.7333H151.858L151.428 52.7045H154.68ZM154.884 47.1479C156.293 47.1479 157.237 46.3262 157.237 45.3843C157.237 44.7079 156.702 44.1718 155.434 44.1718H152.697L152.267 47.1479H154.884Z" fill="#E15050"/>
<path d="M169.436 41.2808H173.162L177.207 55.6406H173.097L172.462 53.1354H166.554L165.146 55.6406H161.016L169.436 41.2808ZM171.728 50.0991L170.664 45.6899H170.585L168.172 50.0991H171.728Z" fill="#E15050"/>
<path d="M190.13 52.459L189.63 55.6406H178.578L180.746 41.2808H184.611L182.913 52.459H190.13Z" fill="#E15050"/>
<path d="M202.763 52.459L202.263 55.6406H191.211L193.378 41.2808H197.269L195.571 52.459H202.763Z" fill="#E15050"/>
<path fill-rule="evenodd" clip-rule="evenodd" d="M48.1133 0L70.5724 17.4462L48.1283 44.0615L48.1133 0Z" fill="#225972"/>
<path d="M30.3149 0C29.7499 0.000272244 29.1918 0.124142 28.6795 0.362975C28.1671 0.601808 27.7129 0.94986 27.3483 1.38287C25.5005 3.56741 22.1094 7.59077 22.1094 7.59077H40.5481V0H30.3149Z" fill="url(#paint0_radial_4276_161)"/>
<path d="M5.23396 21.3944C5.60018 21.8264 6.0556 22.1733 6.56869 22.4112C7.08178 22.6492 7.64029 22.7724 8.20553 22.7723H40.5482V15.1765H0L5.23396 21.3944Z" fill="url(#paint1_radial_4276_161)"/>
<path d="M40.5333 65L40.5483 30.3881L11.332 30.363L40.5333 65Z" fill="url(#paint2_radial_4276_161)"/>
</g>
<defs>
<radialGradient id="paint0_radial_4276_161" cx="0" cy="0" r="1" gradientUnits="userSpaceOnUse" gradientTransform="translate(39.3471 -7.09524) rotate(90) scale(67.0242 71.4566)">
<stop stop-color="#225972"/>
<stop offset="0.79" stop-color="#E15050"/>
<stop offset="1" stop-color="#FD8539"/>
</radialGradient>
<radialGradient id="paint1_radial_4276_161" cx="0" cy="0" r="1" gradientUnits="userSpaceOnUse" gradientTransform="translate(39.3472 -7.09524) rotate(90) scale(67.0242 71.4565)">
<stop stop-color="#225972"/>
<stop offset="0.79" stop-color="#E15050"/>
<stop offset="1" stop-color="#FD8539"/>
</radialGradient>
<radialGradient id="paint2_radial_4276_161" cx="0" cy="0" r="1" gradientUnits="userSpaceOnUse" gradientTransform="translate(39.3473 -7.09526) rotate(90) scale(67.0242 71.4565)">
<stop stop-color="#225972"/>
<stop offset="0.79" stop-color="#E15050"/>
<stop offset="1" stop-color="#FD8539"/>
</radialGradient>
<clipPath id="clip0_4276_161">
<rect width="234" height="65" fill="white"/>
</clipPath>
</defs>
</svg>
