<svg width="351" height="97" viewBox="0 0 351 97" fill="none" xmlns="http://www.w3.org/2000/svg">
<g clip-path="url(#clip0_4276_136)">
<path d="M155.335 51.7412L144.847 36.974H136.906V51.7412H127.422V9.5332H146.27C156.758 9.5332 163.433 14.9017 163.433 23.2835C163.433 28.8913 160.227 33.1757 154.728 35.344L166.714 51.7412H155.335ZM136.906 29.0708H144.944C150.623 29.0708 154.009 26.9024 154.009 23.2835C154.009 19.6646 150.802 17.4365 145.424 17.4365H136.906V29.0708Z" fill="#225972"/>
<path d="M168.559 37.1535C168.559 27.9866 174.784 21.5339 183.601 21.5339C185.33 21.4945 187.049 21.8115 188.65 22.465C190.251 23.1186 191.7 24.0947 192.906 25.3323H193.025V22.4985H201.97V51.7413H193.033V48.9075H192.913C191.704 50.1404 190.254 51.1134 188.654 51.7666C187.054 52.4198 185.337 52.7394 183.609 52.7058C174.791 52.7058 168.559 46.2531 168.559 37.1535ZM192.846 37.1535C192.846 32.0841 189.767 28.5923 185.234 28.5923C180.702 28.5923 177.436 32.0841 177.436 37.1535C177.436 42.223 180.642 45.6549 185.234 45.6549C189.827 45.6549 192.853 42.1557 192.853 37.1535H192.846Z" fill="#225972"/>
<path d="M232.234 25.3322H232.354V5.23389H241.471V51.7412H232.541V48.9074H232.421C231.217 50.1472 229.769 51.1248 228.167 51.7785C226.566 52.4322 224.846 52.7479 223.117 52.7058C214.292 52.7058 208.074 46.2531 208.074 37.1535C208.074 28.0539 214.255 21.5339 222.997 21.5339C224.715 21.5064 226.42 21.8291 228.008 22.4822C229.596 23.1353 231.034 24.1051 232.234 25.3322ZM232.354 37.1535C232.354 32.084 229.267 28.5922 224.742 28.5922C220.218 28.5922 216.951 32.084 216.951 37.1535C216.951 42.2229 220.158 45.6549 224.742 45.6549C229.327 45.6549 232.361 42.1556 232.361 37.1535H232.354Z" fill="#225972"/>
<path d="M248.91 5.23389H258.214V13.4587H248.91V5.23389ZM249.03 22.5358H258.095V51.7412H249.03V22.5358Z" fill="#225972"/>
<path d="M264.25 37.1535C264.25 27.7474 270.895 21.5339 280.866 21.5339C289.264 21.5339 295.422 26.2968 296.268 33.6543H287.668C287.069 31.0597 284.829 28.8316 280.843 28.8316C276.071 28.8316 272.932 32.1439 272.932 37.1535C272.932 42.1632 276.071 45.4157 280.843 45.4157C284.829 45.4157 287.069 43.1726 287.668 40.5855H296.246C295.399 48.0028 289.241 52.7058 280.843 52.7058C270.895 52.7058 264.25 46.4999 264.25 37.1535Z" fill="#225972"/>
<path d="M300.98 37.1535C300.98 27.9866 307.206 21.5339 316.023 21.5339C317.752 21.4945 319.471 21.8115 321.072 22.465C322.673 23.1186 324.122 24.0947 325.327 25.3323H325.447V22.4985H334.392V51.7413H325.447V48.9075H325.327C324.118 50.1404 322.669 51.1134 321.069 51.7666C319.469 52.4198 317.752 52.7394 316.023 52.7058C307.206 52.7058 300.98 46.2531 300.98 37.1535ZM325.267 37.1535C325.267 32.0841 322.189 28.5923 317.656 28.5923C313.124 28.5923 309.865 32.0841 309.865 37.1535C309.865 42.223 313.064 45.6549 317.634 45.6549C322.203 45.6549 325.267 42.1557 325.267 37.1535Z" fill="#225972"/>
<path d="M341.938 5.23389H351.002V51.7412H341.938V5.23389Z" fill="#225972"/>
<path d="M131.85 61.6035H148.503L147.799 66.2243H136.959L136.247 70.8452H145.514L144.81 75.4062H135.543L134.412 83.0328H128.613L131.85 61.6035Z" fill="#E15050"/>
<path d="M148.426 73.9107C148.426 66.4337 154.344 61.0801 162.098 61.0801C168.45 61.0801 172.436 64.9681 172.436 70.7255C172.436 78.2026 166.487 83.5487 158.696 83.5487C152.381 83.5487 148.426 79.6606 148.426 73.9107ZM166.457 71.3685C166.457 68.2431 164.495 66.1346 161.363 66.1346C160.425 66.1199 159.493 66.2955 158.625 66.6506C157.757 67.0057 156.969 67.533 156.311 68.2006C155.653 68.8681 155.137 69.662 154.795 70.5343C154.453 71.4065 154.292 72.339 154.321 73.2752C154.321 76.3931 156.314 78.5091 159.438 78.5091C160.375 78.5239 161.306 78.3482 162.173 77.9929C163.04 77.6375 163.826 77.1099 164.483 76.442C165.139 75.7741 165.653 74.9799 165.992 74.1078C166.332 73.2356 166.49 72.3036 166.457 71.3685Z" fill="#E15050"/>
<path d="M174.551 73.9107C174.551 66.4337 180.469 61.0801 188.23 61.0801C194.583 61.0801 198.568 64.9681 198.568 70.7255C198.568 78.2026 192.62 83.5487 184.829 83.5487C178.506 83.5487 174.551 79.6606 174.551 73.9107ZM192.582 71.3685C192.582 68.2431 190.62 66.1346 187.496 66.1346C186.559 66.123 185.63 66.3008 184.763 66.6572C183.897 67.0136 183.112 67.5413 182.456 68.2084C181.799 68.8755 181.285 69.6683 180.943 70.539C180.602 71.4098 180.441 72.3405 180.469 73.2752C180.469 76.3931 182.469 78.5091 185.593 78.5091C186.528 78.5198 187.455 78.3411 188.319 77.984C189.183 77.6268 189.965 77.0985 190.618 76.431C191.271 75.7636 191.782 74.9708 192.12 74.1007C192.458 73.2305 192.615 72.3011 192.582 71.3685Z" fill="#E15050"/>
<path d="M220.771 66.4113H213.871L211.354 83.0328H205.556L208.073 66.4113H201.203L201.907 61.6035H221.505L220.771 66.4113Z" fill="#E15050"/>
<path d="M223.927 61.6035H234.849C239.142 61.6035 241.682 63.5625 241.682 66.5907C241.673 67.79 241.286 68.956 240.576 69.9236C239.866 70.8912 238.869 71.6113 237.726 71.9817V72.1013C238.736 72.2858 239.645 72.8272 240.288 73.6264C240.93 74.4255 241.263 75.429 241.225 76.453C241.225 80.4009 237.606 83.0328 232.272 83.0328H220.676L223.927 61.6035ZM232.025 78.6512C234.108 78.6512 235.524 77.6717 235.524 76.1464C235.524 74.9501 234.542 74.2173 232.917 74.2173H227.793L227.148 78.6512H232.025ZM232.332 70.3592C234.445 70.3592 235.861 69.1329 235.861 67.7272C235.861 66.7178 235.059 65.9178 233.156 65.9178H229.051L228.407 70.3592H232.332Z" fill="#E15050"/>
<path d="M254.162 61.6035H259.75L265.818 83.0328H259.653L258.701 79.2943H249.839L247.727 83.0328H241.531L254.162 61.6035ZM257.6 74.7632L256.005 68.1833H255.885L252.266 74.7632H257.6Z" fill="#E15050"/>
<path d="M285.199 78.2849L284.449 83.0328H267.871L271.122 61.6035H276.921L274.374 78.2849H285.199Z" fill="#E15050"/>
<path d="M304.152 78.2849L303.403 83.0328H286.824L290.075 61.6035H295.911L293.364 78.2849H304.152Z" fill="#E15050"/>
<path fill-rule="evenodd" clip-rule="evenodd" d="M72.1719 0L105.861 26.0351L72.1944 65.7533L72.1719 0Z" fill="#225972"/>
<path d="M45.4724 0C44.6249 0.000406272 43.7878 0.185257 43.0192 0.54167C42.2507 0.898083 41.5693 1.41748 41.0225 2.06367C38.2507 5.32367 33.1641 11.3278 33.1641 11.3278H60.8222V0H45.4724Z" fill="url(#paint0_radial_4276_136)"/>
<path d="M7.85094 31.9271C8.40026 32.5717 9.08339 33.0895 9.85303 33.4445C10.6227 33.7996 11.4604 33.9834 12.3083 33.9833H60.8223V22.6481H0L7.85094 31.9271Z" fill="url(#paint1_radial_4276_136)"/>
<path d="M60.7981 97L60.8205 45.3484L16.9961 45.311L60.7981 97Z" fill="url(#paint2_radial_4276_136)"/>
</g>
<defs>
<radialGradient id="paint0_radial_4276_136" cx="0" cy="0" r="1" gradientUnits="userSpaceOnUse" gradientTransform="translate(59.0206 -10.5883) rotate(90) scale(100.021 107.185)">
<stop stop-color="#225972"/>
<stop offset="0.79" stop-color="#E15050"/>
<stop offset="1" stop-color="#FD8539"/>
</radialGradient>
<radialGradient id="paint1_radial_4276_136" cx="0" cy="0" r="1" gradientUnits="userSpaceOnUse" gradientTransform="translate(59.0208 -10.5882) rotate(90) scale(100.021 107.185)">
<stop stop-color="#225972"/>
<stop offset="0.79" stop-color="#E15050"/>
<stop offset="1" stop-color="#FD8539"/>
</radialGradient>
<radialGradient id="paint2_radial_4276_136" cx="0" cy="0" r="1" gradientUnits="userSpaceOnUse" gradientTransform="translate(59.019 -10.5883) rotate(90) scale(100.021 107.185)">
<stop stop-color="#225972"/>
<stop offset="0.79" stop-color="#E15050"/>
<stop offset="1" stop-color="#FD8539"/>
</radialGradient>
<clipPath id="clip0_4276_136">
<rect width="351" height="97" fill="white"/>
</clipPath>
</defs>
</svg>
